<svg xmlns="http://www.w3.org/2000/svg" viewBox="0 0 48 48" width="48" height="48">
  <defs>
    <linearGradient id="logo_svg__c" x1="0%" y1="0%" x2="100%" y2="100%">
      <stop offset="0%" style="stop-color:#06b6d4;stop-opacity:1" />
      <stop offset="100%" style="stop-color:#3b82f6;stop-opacity:1" />
    </linearGradient>
    <linearGradient id="logo_svg__d" x1="0%" y1="100%" x2="100%" y2="0%">
      <stop offset="0%" style="stop-color:#8b5cf6;stop-opacity:1" />
      <stop offset="100%" style="stop-color:#06b6d4;stop-opacity:1" />
    </linearGradient>
  </defs>
  <!-- 外圆背景 -->
  <circle cx="24" cy="24" r="22" fill="none" stroke="url(#logo_svg__c)" stroke-width="2" opacity="0.3"/>
  <!-- A 字母主体 - 代表 Allen -->
  <path d="M24 8 L12 38 L16 38 L18 32 L30 32 L32 38 L36 38 L24 8Z M20 28 L24 16 L28 28 Z" fill="url(#logo_svg__c)"/>
  <!-- 神经网络节点装饰 -->
  <circle cx="24" cy="20" r="2" fill="url(#logo_svg__d)"/>
  <circle cx="18" cy="32" r="1.5" fill="url(#logo_svg__d)" opacity="0.7"/>
  <circle cx="30" cy="32" r="1.5" fill="url(#logo_svg__d)" opacity="0.7"/>
  <!-- 连接线 - 象征代码/AI连接 -->
  <line x1="24" y1="20" x2="18" y2="32" stroke="url(#logo_svg__d)" stroke-width="0.8" opacity="0.5"/>
  <line x1="24" y1="20" x2="30" y2="32" stroke="url(#logo_svg__d)" stroke-width="0.8" opacity="0.5"/>
  <!-- 代码括号 < > 装饰 -->
  <path d="M6 18 L2 24 L6 30" fill="none" stroke="url(#logo_svg__c)" stroke-width="1.5" stroke-linecap="round" opacity="0.6"/>
  <path d="M42 18 L46 24 L42 30" fill="none" stroke="url(#logo_svg__c)" stroke-width="1.5" stroke-linecap="round" opacity="0.6"/>
</svg>