<svg xmlns="http://www.w3.org/2000/svg" viewBox="-2 0 52 48" width="52" height="48" role="img" aria-label="Allen Blog Logo - Neural Network A">
  <defs>
    <linearGradient id="g1" x1="0%" y1="0%" x2="100%" y2="100%">
      <stop offset="0%" style="stop-color:#06b6d4;stop-opacity:1" />
      <stop offset="100%" style="stop-color:#3b82f6;stop-opacity:1" />
    </linearGradient>
    <linearGradient id="g1b" x1="0%" y1="100%" x2="100%" y2="0%">
      <stop offset="0%" style="stop-color:#8b5cf6;stop-opacity:1" />
      <stop offset="100%" style="stop-color:#06b6d4;stop-opacity:1" />
    </linearGradient>
  </defs>
  <circle cx="24" cy="24" r="22" fill="none" stroke="url(#g1)" stroke-width="2" opacity="0.3"/>
  <path d="M24 8 L12 38 L16 38 L18 32 L30 32 L32 38 L36 38 L24 8Z M20 28 L24 16 L28 28 Z" fill="url(#g1)"/>
  <circle cx="24" cy="20" r="2" fill="url(#g1b)"/>
  <circle cx="18" cy="32" r="1.5" fill="url(#g1b)" opacity="0.7"/>
  <circle cx="30" cy="32" r="1.5" fill="url(#g1b)" opacity="0.7"/>
  <line x1="24" y1="20" x2="18" y2="32" stroke="url(#g1b)" stroke-width="0.8" opacity="0.5"/>
  <line x1="24" y1="20" x2="30" y2="32" stroke="url(#g1b)" stroke-width="0.8" opacity="0.5"/>
  <path d="M6 18 L2 24 L6 30" fill="none" stroke="url(#g1)" stroke-width="1.5" stroke-linecap="round" opacity="0.6"/>
  <path d="M42 18 L46 24 L42 30" fill="none" stroke="url(#g1)" stroke-width="1.5" stroke-linecap="round" opacity="0.6"/>
</svg>